<svg xmlns="http://www.w3.org/2000/svg" viewBox="0 0 253.17 224.9"><defs><style>.a{fill:#fff;}.b{fill:#fbfbfb;fill-rule:evenodd;}.c{fill:#020288;}</style></defs><path class="a" d="M350.07,189.94h-9.84a76.11,76.11,0,0,0-33.39-29.3,4.94,4.94,0,1,0-4.07,9,65.83,65.83,0,0,1-26.92,125.92H223.47a65.86,65.86,0,1,1,0-131.72h10.05a4.95,4.95,0,1,0,0-9.89H223.47a75.75,75.75,0,0,0-64.44,36h-4.84V128a20.71,20.71,0,1,0-9.89,0v62.37a26.21,26.21,0,0,0-21.22,25.7v27.2a26.2,26.2,0,0,0,26.16,26.18H159a75.78,75.78,0,0,0,64.44,36h52.38a75.23,75.23,0,0,0,53.5-22.25,76.57,76.57,0,0,0,10.91-13.72h9.81a26.21,26.21,0,0,0,26.18-26.18v-27.2a26.21,26.21,0,0,0-26.18-26.17Zm-211.64-82a10.82,10.82,0,1,1,10.81,10.82A10.82,10.82,0,0,1,138.43,107.93ZM149.24,259.6A16.3,16.3,0,0,1,133,243.31v-27.2a16.29,16.29,0,0,1,16.27-16.28h4.63a75.69,75.69,0,0,0,0,59.77Zm217.12-16.29a16.31,16.31,0,0,1-16.29,16.29h-4.62a75.4,75.4,0,0,0-.05-59.77h4.67a16.3,16.3,0,0,1,16.29,16.28v27.2Z" transform="translate(-123.08 -80.55)"/><path class="a" d="M207.91,198.25c-10.26,0-18.62,10.07-18.62,22.45s8.35,22.45,18.62,22.45,18.61-10.07,18.61-22.45-8.34-22.45-18.61-22.45Zm0,35c-4.73,0-8.73-5.75-8.73-12.56s4-12.56,8.73-12.56,8.73,5.75,8.73,12.56S212.64,233.26,207.91,233.26Z" transform="translate(-123.08 -80.55)"/><path class="a" d="M231.65,261a4.94,4.94,0,0,0,0,7,25.42,25.42,0,0,0,36,0,4.94,4.94,0,1,0-7-7,15.56,15.56,0,0,1-22,0,5,5,0,0,0-7,0Z" transform="translate(-123.08 -80.55)"/><path class="a" d="M291.41,243.15c10.26,0,18.61-10.07,18.61-22.45s-8.35-22.45-18.61-22.45-18.63,10.07-18.63,22.45,8.36,22.45,18.63,22.45Zm0-35c4.73,0,8.72,5.75,8.72,12.56s-4,12.56-8.72,12.56-8.74-5.75-8.74-12.56,4-12.56,8.74-12.56Z" transform="translate(-123.08 -80.55)"/><path class="b" d="M238.9,170.09h12.7c.21,12.42-2.34,17.68-7.08,27.43,19.16-5.52,30.91-5.77,44.13-27.43h52.64A11.73,11.73,0,0,0,353,158.39V92.24a11.73,11.73,0,0,0-11.69-11.69H238.9a11.73,11.73,0,0,0-11.69,11.69v66.67a11.75,11.75,0,0,0,11.69,11.18Z" transform="translate(-123.08 -80.55)"/><path class="c" d="M328,107.88H288.34a4.95,4.95,0,1,1,0-9.89H328a4.95,4.95,0,0,1,0,9.89Zm-64.34,0H252.25a4.95,4.95,0,1,1,0-9.89h11.36a4.95,4.95,0,1,1,0,9.89Z" transform="translate(-123.08 -80.55)"/><path class="c" d="M328,130.27h-75.7a4.95,4.95,0,1,1,0-9.89H328a4.95,4.95,0,0,1,0,9.89Z" transform="translate(-123.08 -80.55)"/><path class="c" d="M328,152.65H316.58a4.95,4.95,0,0,1,0-9.89H328a4.95,4.95,0,0,1,0,9.89Zm-36.09,0H252.25a4.95,4.95,0,1,1,0-9.89h39.61a4.95,4.95,0,0,1,0,9.89Z" transform="translate(-123.08 -80.55)"/></svg>